<svg width="13" height="17" viewBox="0 0 13 17" fill="none" xmlns="http://www.w3.org/2000/svg">
<rect width="13" height="17" fill="#E5E5E5"/>
<g clip-path="url(#clip0_0_1)">
<rect width="375" height="5410" transform="translate(-70 -565)" fill="#F7F7F9"/>
<path d="M-70 -565H305V153H9.99999C-34.1828 153 -70 117.183 -70 73V-565Z" fill="white"/>
<path d="M6.64485 0.0345459C3.15607 0.0345459 0.289062 2.86213 0.289062 6.37937V16.3104C0.289062 16.6897 0.599943 17.0001 0.979909 17.0001H4.57231C4.95228 17.0001 5.26316 16.6897 5.26316 16.3104V6.65524C5.26316 5.89661 5.88492 5.27592 6.64485 5.27592C7.40478 5.27592 8.02654 5.89661 8.02654 6.65524V16.3104C8.02654 16.6897 8.33742 17.0001 8.71739 17.0001H12.3098C12.6898 17.0001 13.0006 16.6897 13.0006 16.3104V6.37937C13.0006 2.89662 10.1682 0.0345459 6.64485 0.0345459Z" fill="#505F79"/>
</g>
<defs>
<clipPath id="clip0_0_1">
<rect width="375" height="5410" fill="white" transform="translate(-70 -565)"/>
</clipPath>
</defs>
</svg>
